<svg width="726" height="726" viewBox="0 0 726 726" fill="none" xmlns="http://www.w3.org/2000/svg">
<circle cx="363" cy="363" r="362.5" stroke="#C0C4CA" stroke-dasharray="8 8"/>
<circle cx="363.301" cy="363.301" r="302.864" stroke="#C0C4CA" stroke-dasharray="8 8"/>
<path d="M605.305 340.976C605.742 345.827 606.036 350.719 606.183 355.647L605.683 355.662C605.756 358.105 605.793 360.556 605.793 363.017C605.793 365.477 605.756 367.928 605.683 370.371L606.183 370.385C606.036 375.314 605.742 380.206 605.305 385.057L604.807 385.013C604.366 389.909 603.78 394.764 603.052 399.572L603.546 399.647C602.808 404.519 601.926 409.343 600.903 414.116L600.414 414.011C599.385 418.815 598.212 423.567 596.903 428.261L597.384 428.395C596.062 433.133 594.6 437.813 593.002 442.43L592.529 442.266C590.925 446.901 589.184 451.473 587.311 455.976L587.773 456.168C585.886 460.705 583.865 465.172 581.716 469.565L581.266 469.345C579.112 473.748 576.828 478.077 574.42 482.325L574.854 482.572C572.433 486.843 569.887 491.033 567.219 495.138L566.8 494.865C564.132 498.971 561.343 502.991 558.438 506.921L558.84 507.218C555.924 511.163 552.892 515.016 549.747 518.773L549.364 518.452C546.224 522.205 542.972 525.862 539.613 529.418L539.977 529.761C536.611 533.325 533.138 536.787 529.564 540.142L529.222 539.778C525.657 543.125 521.99 546.366 518.227 549.496L518.547 549.88C514.781 553.013 510.919 556.034 506.966 558.939L506.67 558.536C502.732 561.429 498.704 564.207 494.59 566.864L494.862 567.284C490.75 569.94 486.553 572.476 482.276 574.886L482.03 574.45C477.776 576.848 473.441 579.121 469.033 581.265L469.251 581.715C464.854 583.853 460.382 585.864 455.841 587.741L455.65 587.279C451.143 589.143 446.568 590.874 441.929 592.47L442.092 592.943C437.473 594.532 432.791 595.986 428.05 597.301L427.917 596.819C423.221 598.122 418.467 599.288 413.661 600.311L413.766 600.8C408.992 601.817 404.167 602.694 399.294 603.428L399.22 602.933C394.411 603.657 389.556 604.24 384.659 604.678L384.703 605.176C379.852 605.611 374.96 605.903 370.031 606.049L370.016 605.549C367.574 605.622 365.122 605.658 362.662 605.658C360.202 605.658 357.75 605.622 355.308 605.549L355.293 606.049C350.364 605.903 345.472 605.611 340.621 605.176L340.665 604.678C335.768 604.24 330.913 603.657 326.104 602.933L326.03 603.428C321.157 602.694 316.332 601.817 311.558 600.8L311.662 600.311C306.857 599.288 302.103 598.122 297.407 596.819L297.274 597.301C292.533 595.986 287.851 594.532 283.232 592.943L283.394 592.47C278.756 590.874 274.181 589.143 269.674 587.279L269.483 587.741C264.942 585.864 260.47 583.853 256.073 581.715L256.291 581.265C251.882 579.121 247.548 576.848 243.294 574.45L243.048 574.886C238.771 572.476 234.574 569.94 230.462 567.284L230.734 566.864C226.62 564.207 222.592 561.429 218.654 558.536L218.358 558.939C214.405 556.034 210.543 553.013 206.777 549.88L207.097 549.496C203.334 546.366 199.667 543.125 196.102 539.778L195.76 540.142C192.186 536.787 188.713 533.325 185.347 529.761L185.711 529.418C182.352 525.862 179.1 522.205 175.96 518.452L175.576 518.773C172.432 515.016 169.4 511.163 166.484 507.218L166.886 506.921C163.981 502.991 161.192 498.971 158.524 494.865L158.105 495.138C155.437 491.033 152.89 486.842 150.469 482.572L150.904 482.325C148.496 478.077 146.212 473.748 144.057 469.345L143.608 469.565C141.459 465.172 139.438 460.705 137.551 456.168L138.013 455.976C136.14 451.473 134.399 446.901 132.795 442.266L132.322 442.43C130.724 437.813 129.262 433.133 127.94 428.395L128.421 428.261C127.111 423.567 125.939 418.815 124.91 414.011L124.421 414.116C123.398 409.343 122.515 404.519 121.778 399.647L122.272 399.572C121.544 394.764 120.958 389.909 120.517 385.013L120.019 385.057C119.582 380.207 119.288 375.314 119.141 370.386L119.641 370.371C119.568 367.928 119.531 365.477 119.531 363.017C119.531 360.556 119.568 358.105 119.641 355.662L119.141 355.648C119.288 350.719 119.582 345.827 120.019 340.976L120.517 341.021C120.958 336.124 121.544 331.269 122.272 326.461L121.778 326.386C122.515 321.514 123.398 316.69 124.421 311.917L124.91 312.022C125.939 307.218 127.111 302.466 128.421 297.772L127.94 297.638C129.262 292.9 130.724 288.22 132.322 283.604L132.795 283.767C134.399 279.132 136.14 274.56 138.013 270.057L137.551 269.865C139.438 265.328 141.459 260.861 143.608 256.468L144.057 256.688C146.212 252.285 148.496 247.956 150.904 243.708L150.469 243.461C152.89 239.191 155.437 235 158.105 230.896L158.524 231.168C161.192 227.062 163.981 223.042 166.886 219.112L166.484 218.815C169.4 214.87 172.432 211.017 175.576 207.26L175.96 207.581C179.1 203.828 182.352 200.171 185.711 196.615L185.347 196.272C188.713 192.708 192.186 189.246 195.76 185.891L196.102 186.255C199.667 182.908 203.334 179.667 207.097 176.537L206.777 176.153C210.543 173.02 214.405 169.999 218.358 167.094L218.654 167.497C222.592 164.604 226.62 161.826 230.734 159.169L230.462 158.749C234.574 156.093 238.771 153.557 243.048 151.147L243.294 151.583C247.548 149.185 251.882 146.912 256.291 144.768L256.073 144.318C260.47 142.18 264.942 140.169 269.483 138.292L269.674 138.754C274.181 136.891 278.756 135.159 283.394 133.563L283.232 133.09C287.851 131.501 292.533 130.047 297.274 128.732L297.407 129.214C302.103 127.911 306.857 126.746 311.662 125.722L311.558 125.233C316.332 124.216 321.157 123.339 326.03 122.605L326.104 123.1C330.913 122.376 335.768 121.793 340.665 121.355L340.62 120.857C345.472 120.422 350.364 120.13 355.293 119.984L355.308 120.484C357.75 120.411 360.202 120.375 362.662 120.375C365.122 120.375 367.574 120.411 370.016 120.484L370.031 119.984C374.96 120.13 379.852 120.422 384.703 120.857L384.659 121.355C389.556 121.793 394.411 122.376 399.22 123.1L399.294 122.605C404.167 123.339 408.992 124.216 413.766 125.233L413.661 125.722C418.467 126.746 423.22 127.911 427.916 129.214L428.05 128.732C432.79 130.047 437.473 131.501 442.092 133.09L441.929 133.563C446.568 135.159 451.143 136.89 455.65 138.754L455.841 138.292C460.382 140.169 464.854 142.18 469.251 144.318L469.033 144.768C473.441 146.912 477.776 149.185 482.03 151.583L482.276 151.147C486.553 153.557 490.75 156.093 494.862 158.749L494.59 159.169C498.704 161.826 502.732 164.604 506.67 167.497L506.966 167.094C510.919 169.999 514.781 173.02 518.547 176.153L518.227 176.537C521.99 179.667 525.657 182.908 529.222 186.255L529.564 185.891C533.138 189.246 536.611 192.708 539.977 196.272L539.613 196.615C542.972 200.171 546.224 203.828 549.364 207.581L549.747 207.26C552.892 211.017 555.924 214.87 558.84 218.815L558.438 219.112C561.343 223.042 564.132 227.062 566.8 231.168L567.219 230.896C569.887 235 572.433 239.191 574.854 243.461L574.42 243.708C576.828 247.956 579.112 252.285 581.266 256.688L581.716 256.468C583.865 260.861 585.886 265.328 587.773 269.865L587.311 270.057C589.184 274.56 590.925 279.132 592.529 283.767L593.002 283.604C594.6 288.22 596.062 292.9 597.384 297.638L596.902 297.772C598.212 302.466 599.385 307.218 600.414 312.022L600.903 311.917C601.926 316.69 602.808 321.514 603.546 326.386L603.052 326.461C603.78 331.269 604.366 336.124 604.807 341.02L605.305 340.976Z" stroke="#C0C4CA" stroke-dasharray="15 15"/>
<ellipse cx="362.998" cy="362.961" rx="190.795" ry="189.817" fill="#475467" fill-opacity="0.03"/>
</svg>
