<svg width="25" height="26" viewBox="0 0 25 26" fill="none" xmlns="http://www.w3.org/2000/svg">
<rect x="-6.10352e-05" y="0.966309" width="25" height="25" rx="4" fill="#FFAA2E"/>
<path fill-rule="evenodd" clip-rule="evenodd" d="M12.238 13.5124C12.1193 13.6333 12.1103 13.8659 12.2758 14.0283C12.4011 14.1513 12.4721 14.1693 12.5023 14.1729C12.538 14.1772 12.5942 14.1708 12.7071 14.1169L14.1105 13.4341C14.2756 13.3551 14.4833 13.2834 14.723 13.313C14.9681 13.3432 15.1854 13.4709 15.3859 13.6678C15.8222 14.096 15.8711 14.7941 15.4437 15.2295L14.8008 15.8845C14.3338 16.3601 13.5654 16.3273 13.0848 15.8555C12.9376 15.711 12.9331 15.4769 13.0748 15.3326C13.2164 15.1883 13.4506 15.1884 13.5978 15.3329C13.8065 15.5379 14.1054 15.5266 14.2677 15.3612L14.9107 14.7063C15.0304 14.5843 15.0408 14.3551 14.8729 14.1904C14.7501 14.0698 14.6787 14.0509 14.6468 14.0469C14.6097 14.0423 14.5523 14.0489 14.4417 14.1018L13.0382 14.7846C12.8753 14.8626 12.6682 14.936 12.428 14.9071C12.1821 14.8774 11.9644 14.7488 11.7628 14.5509C11.3313 14.1273 11.2765 13.4256 11.705 12.9891L12.348 12.3342C12.8149 11.8586 13.5834 11.8914 14.0639 12.3632C14.2111 12.5077 14.2156 12.7418 14.0739 12.8861C13.9323 13.0304 13.6981 13.0302 13.5509 12.8857C13.3422 12.6808 13.0433 12.692 12.881 12.8574L12.238 13.5124Z" fill="white"/>
<path fill-rule="evenodd" clip-rule="evenodd" d="M11.634 12.2045C11.7843 12.0514 12.0302 12.0491 12.1833 12.1994L15.5096 15.4648C15.6627 15.615 15.665 15.861 15.5147 16.0141C15.3644 16.1672 15.1184 16.1694 14.9654 16.0191L11.6391 12.7538C11.486 12.6035 11.4837 12.3576 11.634 12.2045Z" fill="white"/>
<g clip-path="url(#clip0_136_668)">
<path fill-rule="evenodd" clip-rule="evenodd" d="M15.5147 7.1473C15.5145 7.14715 15.5148 7.14744 15.5147 7.1473L18.8342 10.4522C20.4059 12.0323 20.4074 14.5861 18.8332 16.1603L15.6243 19.3692L15.6233 19.3702C14.0431 20.9419 11.4894 20.9434 9.91517 19.3692L6.60399 16.058C5.8007 15.2547 5.36996 14.1476 5.42064 13.0073L5.42073 13.0054L5.59622 9.3494C5.68345 7.61359 7.07092 6.22568 8.81541 6.14674C8.8157 6.14672 8.81599 6.14671 8.81628 6.1467L12.467 5.97146C12.4674 5.97144 12.4678 5.97142 12.4682 5.9714C13.6043 5.9124 14.7122 6.34511 15.5147 7.1473ZM14.7394 7.92258C14.1534 7.33654 13.3465 7.02343 12.5242 7.06639L12.5219 7.0665L8.86721 7.24193L8.86557 7.24201C7.68688 7.29505 6.75051 8.23106 6.69128 9.40386C6.69127 9.40405 6.69129 9.40367 6.69128 9.40386L6.51598 13.056C6.51596 13.0563 6.51595 13.0566 6.51594 13.0569C6.47918 13.8898 6.79399 14.6974 7.37927 15.2827L10.6905 18.5939C11.8352 19.7386 13.696 19.7403 14.8496 18.5933C14.8494 18.5935 14.8497 18.5932 14.8496 18.5933L18.0579 15.385C19.2025 14.2404 19.2043 12.38 18.0577 11.2263C18.0574 11.226 18.0571 11.2257 18.0568 11.2254L14.7403 7.92343L14.7394 7.92258Z" fill="white"/>
<path fill-rule="evenodd" clip-rule="evenodd" d="M9.54856 9.18206C9.04259 9.18206 8.63242 9.59223 8.63242 10.0982C8.63242 10.6042 9.04259 11.0143 9.54856 11.0143C10.0545 11.0143 10.4647 10.6042 10.4647 10.0982C10.4647 9.59223 10.0545 9.18206 9.54856 9.18206ZM7.84717 10.0982C7.84717 9.15854 8.60891 8.3968 9.54856 8.3968C10.4882 8.3968 11.2499 9.15854 11.2499 10.0982C11.2499 11.0378 10.4882 11.7996 9.54856 11.7996C8.60891 11.7996 7.84717 11.0378 7.84717 10.0982Z" fill="white"/>
</g>
<defs>
<clipPath id="clip0_136_668">
<rect width="14.5833" height="14.5833" fill="white" transform="translate(5.41663 5.96631)"/>
</clipPath>
</defs>
</svg>
