<svg width="9" height="7" viewBox="0 0 9 7" fill="none" xmlns="http://www.w3.org/2000/svg">
<path d="M7.80648 2.679H8.08215C8.23449 2.679 8.35782 2.55567 8.35782 2.40333C8.35782 2.25098 8.23449 2.12766 8.08215 2.12766H7.4093L6.90148 1.28251C6.70199 0.948808 6.34108 0.745682 5.95296 0.745682H3.02397C2.63586 0.745682 2.27677 0.948808 2.07545 1.28251L1.56764 2.12766H0.894792C0.742449 2.12766 0.619122 2.25098 0.619122 2.40333C0.619122 2.55567 0.742449 2.679 0.894792 2.679H1.17046L0.838571 3.12152C0.695295 3.31195 0.61731 3.5459 0.61731 3.7853V4.88979C0.61731 5.19448 0.863959 5.44294 1.17046 5.44294V5.71861C1.17046 6.0233 1.41711 6.27177 1.72361 6.27177H2.27677C2.58145 6.27177 2.82992 6.02511 2.82992 5.71861V5.44294H6.14521V5.71861C6.14521 6.0233 6.39186 6.27177 6.69836 6.27177H7.25151C7.5562 6.27177 7.80466 6.02511 7.80466 5.71861V5.44294C8.10935 5.44294 8.35782 5.19629 8.35782 4.88979V3.7853C8.35782 3.5459 8.27983 3.31376 8.13656 3.12152L7.80466 2.679H7.80648ZM1.86507 4.61231C1.63656 4.61231 1.44976 4.42732 1.44976 4.19699C1.44976 3.96666 1.63475 3.78167 1.86507 3.78167C2.0954 3.78167 2.28039 3.96666 2.28039 4.19699C2.28039 4.42732 2.0954 4.61231 1.86507 4.61231ZM6.68929 2.44685C6.46259 2.59738 6.19599 2.679 5.92213 2.679H3.05843C2.78639 2.679 2.51979 2.5992 2.29309 2.44685L2.10085 2.31809L2.55244 1.56544C2.65218 1.39858 2.83173 1.29702 3.02579 1.29702H5.95478C6.14883 1.29702 6.32838 1.39858 6.42813 1.56544L6.87972 2.31809L6.68748 2.44685H6.68929ZM7.11549 4.61231C6.88698 4.61231 6.70017 4.42732 6.70017 4.19699C6.70017 3.96666 6.88516 3.78167 7.11549 3.78167C7.34582 3.78167 7.53081 3.96666 7.53081 4.19699C7.53081 4.42732 7.34582 4.61231 7.11549 4.61231Z" fill="white"/>
</svg>
