<svg width="60" height="60" viewBox="0 0 60 60" fill="none" xmlns="http://www.w3.org/2000/svg">
<rect width="60" height="60" rx="15" fill="#5B67EF"/>
<path fill-rule="evenodd" clip-rule="evenodd" d="M30.5604 23.0835C31.3038 23.0835 31.9065 23.6862 31.9065 24.4297L31.9065 37.6948C31.9065 38.4383 31.3038 39.041 30.5604 39.041C29.8169 39.041 29.2142 38.4383 29.2142 37.6948L29.2142 24.4297C29.2142 23.6862 29.8169 23.0835 30.5604 23.0835ZM23.0224 25.2665C23.7659 25.2665 24.3686 25.8692 24.3686 26.6126V37.695C24.3686 38.4385 23.7659 39.0412 23.0224 39.0412C22.279 39.0412 21.6763 38.4385 21.6763 37.695V26.6126C21.6763 25.8692 22.279 25.2665 23.0224 25.2665ZM37.9757 19.2919C38.7191 19.2919 39.3218 19.8945 39.3218 20.638V37.6943C39.3218 38.4378 38.7191 39.0405 37.9757 39.0405C37.2322 39.0405 36.6295 38.4378 36.6295 37.6943V20.638C36.6295 19.8945 37.2322 19.2919 37.9757 19.2919Z" fill="white"/>
<path fill-rule="evenodd" clip-rule="evenodd" d="M15.6756 14.957C17.4431 13.0611 19.9599 12 22.9312 12H30.8909C31.6343 12 32.237 12.6027 32.237 13.3462C32.237 14.0897 31.6343 14.6923 30.8909 14.6923H22.9312C20.6268 14.6923 18.8511 15.499 17.6449 16.7929C16.429 18.0971 15.6923 20.0052 15.6923 22.3696V36.6322C15.6923 38.9982 16.4261 40.9055 17.6395 42.2086C18.8429 43.5008 20.6179 44.3077 22.9312 44.3077H38.0687C40.383 44.3077 42.1579 43.5007 43.361 42.2086C44.5742 40.9057 45.3076 38.9983 45.3076 36.6322V29.5491C45.3076 28.8056 45.9103 28.2029 46.6538 28.2029C47.3972 28.2029 47.9999 28.8056 47.9999 29.5491V36.6322C47.9999 39.5539 47.0874 42.1574 45.3314 44.0433C43.5652 45.9401 41.0476 47 38.0687 47H22.9312C19.9531 47 17.4356 45.9401 15.6693 44.0434C13.913 42.1575 13 39.554 13 36.6322V22.3696C13 19.4461 13.918 16.8424 15.6756 14.957Z" fill="white"/>
<path fill-rule="evenodd" clip-rule="evenodd" d="M46.9335 12.5503L45.8369 10.2203C45.799 10.143 45.7396 10.0816 45.665 10.0429C45.5753 9.99491 45.4717 9.98691 45.377 10.0203C45.2822 10.0536 45.2039 10.1256 45.1597 10.2203L44.063 12.5477C44.0074 12.665 43.9025 12.7464 43.7788 12.7664L41.3226 13.1438C41.2429 13.1585 41.1684 13.1972 41.109 13.2545C40.9637 13.4079 40.9637 13.6573 41.109 13.8107L42.898 15.6272C42.9866 15.7179 43.0269 15.8486 43.0055 15.9766L42.5797 18.54C42.5658 18.6267 42.5797 18.7134 42.6175 18.7908C42.7174 18.9815 42.9435 19.0548 43.128 18.9562L45.3315 17.7385C45.3347 17.7366 45.338 17.7348 45.3413 17.733C45.4404 17.6799 45.5578 17.6777 45.6594 17.7263C45.6673 17.73 45.6751 17.7341 45.6828 17.7385L47.8698 18.9482C47.9455 18.9882 48.0302 19.0015 48.1136 18.9882C48.3159 18.9535 48.4523 18.7561 48.4231 18.5427L47.9961 15.9793C47.9734 15.8499 48.0139 15.7179 48.1036 15.6285L49.8838 13.812C50.0215 13.676 50.0392 13.4532 49.9241 13.2959C49.8636 13.2118 49.7727 13.1571 49.674 13.1425L47.2179 12.7677C47.0954 12.749 46.9892 12.6677 46.9335 12.5503ZM45.4054 14.8368C45.4364 14.8154 45.4669 14.7933 45.4969 14.7708C45.5287 14.7948 45.5611 14.8181 45.594 14.8409C45.5617 14.926 45.5333 15.0123 45.509 15.0995C45.5033 15.0994 45.4977 15.0995 45.492 15.0995C45.4673 15.0108 45.4384 14.9231 45.4054 14.8368ZM44.4561 12.3357C44.4527 12.3339 44.4492 12.3321 44.4458 12.3303L44.4674 12.3417C44.4637 12.3397 44.4599 12.3377 44.4561 12.3357Z" fill="white"/>
<circle cx="45.5" cy="15.1429" r="0.642857" fill="white"/>
</svg>
