<svg width="50" height="50" viewBox="0 0 50 50" fill="none" xmlns="http://www.w3.org/2000/svg">
<path d="M24.6848 0C11.0531 0 0 11.0505 0 24.6848C0 38.3165 11.0505 49.3697 24.6848 49.3697C38.3165 49.3697 49.3697 38.3192 49.3697 24.6848C49.3697 11.0505 38.3165 0 24.6848 0Z" fill="white"/>
<path d="M24.6866 3.5369C13.0079 3.5369 3.53833 13.0065 3.53833 24.6851C3.53833 36.3638 13.0079 45.8334 24.6866 45.8334C36.3652 45.8334 45.8348 36.3638 45.8348 24.6851C45.8348 13.0065 36.3652 3.5369 24.6866 3.5369Z" fill="#505D68"/>
<mask id="mask0_7_15192" style="mask-type:alpha" maskUnits="userSpaceOnUse" x="3" y="3" width="43" height="43">
<path d="M24.6819 3.53671C13.0033 3.53671 3.53369 13.0063 3.53369 24.685C3.53369 36.3636 13.0033 45.8332 24.6819 45.8332C36.3606 45.8332 45.8302 36.3636 45.8302 24.685C45.8302 13.0063 36.3606 3.53671 24.6819 3.53671Z" fill="#007AFF"/>
</mask>
<g mask="url(#mask0_7_15192)">
<rect x="-52.8213" y="-8.53271" width="183.422" height="102.797"/>
</g>
</svg>
