<svg width="9" height="7" viewBox="0 0 9 7" fill="none" xmlns="http://www.w3.org/2000/svg">
<path d="M7.80636 2.679H8.08202C8.23437 2.679 8.35769 2.55567 8.35769 2.40333C8.35769 2.25099 8.23437 2.12766 8.08202 2.12766H7.40917L6.90136 1.28252C6.70186 0.948812 6.34096 0.745686 5.95284 0.745686H3.02385C2.63574 0.745686 2.27664 0.948812 2.07533 1.28252L1.56752 2.12766H0.89467C0.742327 2.12766 0.619 2.25099 0.619 2.40333C0.619 2.55567 0.742327 2.679 0.89467 2.679H1.17034L0.838449 3.12152C0.695173 3.31195 0.617188 3.54591 0.617188 3.7853V4.8898C0.617188 5.19448 0.863837 5.44295 1.17034 5.44295V5.71862C1.17034 6.0233 1.41699 6.27177 1.72349 6.27177H2.27664C2.58133 6.27177 2.8298 6.02512 2.8298 5.71862V5.44295H6.14508V5.71862C6.14508 6.0233 6.39174 6.27177 6.69824 6.27177H7.25139C7.55608 6.27177 7.80454 6.02512 7.80454 5.71862V5.44295C8.10923 5.44295 8.35769 5.1963 8.35769 4.8898V3.7853C8.35769 3.54591 8.27971 3.31377 8.13643 3.12152L7.80454 2.679H7.80636ZM1.86495 4.61231C1.63644 4.61231 1.44964 4.42732 1.44964 4.19699C1.44964 3.96666 1.63462 3.78168 1.86495 3.78168C2.09528 3.78168 2.28027 3.96666 2.28027 4.19699C2.28027 4.42732 2.09528 4.61231 1.86495 4.61231ZM6.68917 2.44686C6.46247 2.59739 6.19587 2.679 5.92201 2.679H3.05831C2.78627 2.679 2.51967 2.5992 2.29297 2.44686L2.10072 2.31809L2.55231 1.56544C2.65206 1.39859 2.83161 1.29702 3.02567 1.29702H5.95465C6.14871 1.29702 6.32826 1.39859 6.42801 1.56544L6.8796 2.31809L6.68736 2.44686H6.68917ZM7.11537 4.61231C6.88685 4.61231 6.70005 4.42732 6.70005 4.19699C6.70005 3.96666 6.88504 3.78168 7.11537 3.78168C7.3457 3.78168 7.53069 3.96666 7.53069 4.19699C7.53069 4.42732 7.3457 4.61231 7.11537 4.61231Z" fill="white"/>
</svg>
