<svg width="40" height="40" viewBox="0 0 40 40" fill="none" xmlns="http://www.w3.org/2000/svg">
<rect width="40" height="40" rx="8" fill="#00CDB4"/>
<path fill-rule="evenodd" clip-rule="evenodd" d="M10.4505 9.97111C11.6288 8.70736 13.3067 8 15.2875 8H25.3803C27.3658 8 29.044 8.70701 30.2212 9.97163C31.3916 11.229 32 12.9646 32 14.9119V24.4214C32 26.3687 31.3916 28.1044 30.221 29.3617C29.0436 30.6264 27.3652 31.3333 25.3792 31.3333H15.2875C13.302 31.3333 11.6236 30.6263 10.4462 29.3618C9.27542 28.1045 8.66669 26.3688 8.66669 24.4214V14.9119C8.66669 12.9633 9.27871 11.2279 10.4505 9.97111ZM11.7633 11.1951C10.9527 12.0645 10.4616 13.3363 10.4616 14.9119V24.4214C10.4616 25.9982 10.9507 27.2698 11.7598 28.1387C12.5621 29.0003 13.7454 29.5385 15.2875 29.5385H25.3792C26.9219 29.5385 28.1052 29.0003 28.9073 28.1387C29.7162 27.2699 30.2051 25.9983 30.2051 24.4214V14.9119C30.2051 13.335 29.7162 12.0634 28.9074 11.1946C28.1054 10.333 26.9224 9.79487 25.3803 9.79487H15.2875C13.7512 9.79487 12.5674 10.3327 11.7633 11.1951Z" fill="white"/>
<path fill-rule="evenodd" clip-rule="evenodd" d="M15.1477 23.1567C15.6434 23.1567 16.0452 23.5585 16.0452 24.0542V25.6496C16.0452 26.1453 15.6434 26.5471 15.1477 26.5471C14.6521 26.5471 14.2503 26.1453 14.2503 25.6496V24.0542C14.2503 23.5585 14.6521 23.1567 15.1477 23.1567Z" fill="white"/>
<path fill-rule="evenodd" clip-rule="evenodd" d="M20.733 21.5614C21.2286 21.5614 21.6304 21.9632 21.6304 22.4588V25.6497C21.6304 26.1454 21.2286 26.5472 20.733 26.5472C20.2374 26.5472 19.8356 26.1454 19.8356 25.6497V22.4588C19.8356 21.9632 20.2374 21.5614 20.733 21.5614Z" fill="white"/>
<path fill-rule="evenodd" clip-rule="evenodd" d="M25.5189 19.168C26.0145 19.168 26.4163 19.5698 26.4163 20.0654V25.6495C26.4163 26.1451 26.0145 26.5469 25.5189 26.5469C25.0233 26.5469 24.6215 26.1451 24.6215 25.6495V20.0654C24.6215 19.5698 25.0233 19.168 25.5189 19.168Z" fill="white"/>
<path fill-rule="evenodd" clip-rule="evenodd" d="M26.1171 13.0154C26.4861 13.3462 26.5172 13.9136 26.1863 14.2827L25.7172 14.8061C25.7171 14.8062 25.717 14.8063 25.7169 14.8064C23.0062 17.8331 19.385 19.9749 15.3564 20.9383C14.8744 21.0536 14.3902 20.7562 14.2749 20.2742C14.1596 19.7921 14.4569 19.3079 14.939 19.1926C18.6205 18.3122 21.9184 16.3575 24.3801 13.6087L24.8498 13.0847C25.1806 12.7156 25.748 12.6846 26.1171 13.0154Z" fill="white"/>
<path fill-rule="evenodd" clip-rule="evenodd" d="M22.2285 13.6837C22.2285 13.1881 22.6303 12.7863 23.126 12.7863H25.5191C26.0148 12.7863 26.4165 13.1881 26.4165 13.6837V16.8746C26.4165 17.3702 26.0148 17.772 25.5191 17.772C25.0235 17.772 24.6217 17.3702 24.6217 16.8746V14.5811H23.126C22.6303 14.5811 22.2285 14.1793 22.2285 13.6837Z" fill="white"/>
</svg>
